<svg xmlns="http://www.w3.org/2000/svg" xmlns:xlink="http://www.w3.org/1999/xlink" width="1366" zoomAndPan="magnify" viewBox="0 0 1024.5 213.75" height="768" preserveAspectRatio="xMidYMid meet" version="1.0"><defs><g/></defs><g fill="#38b6ff" fill-opacity="1"><g transform="translate(205.187152, 180.249099)"><g><path d="M 146.859375 -88.9375 C 146.859375 -75.925781 144.757812 -63.957031 140.5625 -53.03125 C 136.375 -42.113281 130.535156 -32.734375 123.046875 -24.890625 C 115.566406 -17.046875 106.691406 -10.9375 96.421875 -6.5625 C 86.160156 -2.1875 74.953125 0 62.796875 0 L 7.59375 0 L 26.90625 -156.84375 L 82.21875 -156.84375 C 92.195312 -156.84375 101.179688 -155.144531 109.171875 -151.75 C 117.160156 -148.351562 123.9375 -143.648438 129.5 -137.640625 C 135.070312 -131.640625 139.359375 -124.484375 142.359375 -116.171875 C 145.359375 -107.859375 146.859375 -98.78125 146.859375 -88.9375 Z M 118.015625 -88.296875 C 118.015625 -95.304688 117.144531 -101.664062 115.40625 -107.375 C 113.675781 -113.09375 111.164062 -117.957031 107.875 -121.96875 C 104.582031 -125.988281 100.550781 -129.082031 95.78125 -131.25 C 91.007812 -133.414062 85.550781 -134.5 79.40625 -134.5 L 52.390625 -134.5 L 38.609375 -22.453125 L 65.625 -22.453125 C 73.507812 -22.453125 80.664062 -23.96875 87.09375 -27 C 93.53125 -30.039062 99.046875 -34.398438 103.640625 -40.078125 C 108.234375 -45.753906 111.773438 -52.660156 114.265625 -60.796875 C 116.765625 -68.929688 118.015625 -78.097656 118.015625 -88.296875 Z M 118.015625 -88.296875 "/></g></g></g><g fill="#38b6ff" fill-opacity="1"><g transform="translate(363.519101, 180.249099)"><g><path d="M 134.171875 0 L 112.375 0 C 109.914062 0 107.960938 -0.578125 106.515625 -1.734375 C 105.066406 -2.890625 104.160156 -4.445312 103.796875 -6.40625 L 97.296875 -39.15625 L 38.828125 -39.15625 L 24.296875 -6.40625 C 23.503906 -4.738281 22.203125 -3.253906 20.390625 -1.953125 C 18.585938 -0.648438 16.5625 0 14.3125 0 L -7.8125 0 L 68.015625 -156.84375 L 96.75 -156.84375 Z M 47.625 -59 L 93.28125 -59 L 82.65625 -112.703125 C 82.070312 -115.304688 81.488281 -118.050781 80.90625 -120.9375 C 80.332031 -123.832031 79.796875 -127.085938 79.296875 -130.703125 C 77.921875 -127.085938 76.5625 -123.742188 75.21875 -120.671875 C 73.882812 -117.597656 72.640625 -114.90625 71.484375 -112.59375 Z M 47.625 -59 "/></g></g></g><g fill="#38b6ff" fill-opacity="1"><g transform="translate(511.98253, 180.249099)"><g><path d="M 43.171875 -55.53125 L 36.34375 0 L 8.359375 0 L 27.546875 -156.84375 L 75.28125 -156.84375 C 84.175781 -156.84375 91.820312 -155.773438 98.21875 -153.640625 C 104.613281 -151.515625 109.875 -148.535156 114 -144.703125 C 118.125 -140.867188 121.179688 -136.328125 123.171875 -131.078125 C 125.160156 -125.835938 126.15625 -120.070312 126.15625 -113.78125 C 126.15625 -105.394531 124.832031 -97.640625 122.1875 -90.515625 C 119.550781 -83.390625 115.59375 -77.242188 110.3125 -72.078125 C 105.03125 -66.910156 98.429688 -62.859375 90.515625 -59.921875 C 82.597656 -56.992188 73.359375 -55.53125 62.796875 -55.53125 Z M 53.046875 -135.15625 L 45.875 -77.453125 L 65.625 -77.453125 C 71.125 -77.453125 75.894531 -78.28125 79.9375 -79.9375 C 83.988281 -81.601562 87.351562 -83.9375 90.03125 -86.9375 C 92.707031 -89.9375 94.675781 -93.492188 95.9375 -97.609375 C 97.207031 -101.734375 97.84375 -106.289062 97.84375 -111.28125 C 97.84375 -114.832031 97.332031 -118.085938 96.3125 -121.046875 C 95.300781 -124.015625 93.75 -126.53125 91.65625 -128.59375 C 89.5625 -130.65625 86.941406 -132.265625 83.796875 -133.421875 C 80.648438 -134.578125 76.90625 -135.15625 72.5625 -135.15625 Z M 53.046875 -135.15625 "/></g></g></g><g fill="#38b6ff" fill-opacity="1"><g transform="translate(646.564994, 180.249099)"><g/></g></g><g fill="#38b6ff" fill-opacity="1"><g transform="translate(697.753211, 180.249099)"><g><path d="M 73 -54.34375 C 71.914062 -45.664062 69.960938 -37.851562 67.140625 -30.90625 C 64.316406 -23.96875 60.644531 -18.09375 56.125 -13.28125 C 51.613281 -8.476562 46.25 -4.773438 40.03125 -2.171875 C 33.8125 0.429688 26.757812 1.734375 18.875 1.734375 C 15.039062 1.734375 11.367188 1.5 7.859375 1.03125 C 4.359375 0.5625 0.765625 -0.175781 -2.921875 -1.1875 L -0.875 -17.6875 C -0.726562 -19.195312 -0.203125 -20.457031 0.703125 -21.46875 C 1.609375 -22.488281 3 -23 4.875 -23 C 6.539062 -23 8.457031 -22.742188 10.625 -22.234375 C 12.800781 -21.734375 15.585938 -21.484375 18.984375 -21.484375 C 22.304688 -21.484375 25.378906 -22.0625 28.203125 -23.21875 C 31.023438 -24.375 33.554688 -26.234375 35.796875 -28.796875 C 38.035156 -31.367188 39.914062 -34.695312 41.4375 -38.78125 C 42.957031 -42.863281 44.078125 -47.832031 44.796875 -53.6875 L 57.375 -156.84375 L 85.578125 -156.84375 Z M 73 -54.34375 "/></g></g></g><g fill="#38b6ff" fill-opacity="1"><g transform="translate(794.054558, 180.249099)"><g><path d="M 39.046875 0 L 10.734375 0 L 29.9375 -156.84375 L 58.25 -156.84375 Z M 39.046875 0 "/></g></g></g></svg>